# xmcd
#
# Track frame offsets:
#	150
#	10608
#	24741
#	37959
#	48357
#	66396
#	79111
#	92321
#	105074
#	116679
#
# Disc length: 1785 seconds
#
# Revision: 0
# Processed by: cddbd v1.5.2PL0 Copyright (c) Steve Scherf et al.
# Submitted via: EZCDAudioConverter 4.0.5.1
#
DISCID=6906f70a
DTITLE=Dave Dudley - Dave Dudleys' Diesel Express
DYEAR=1982
DGENRE=TruckCountry
TTITLE0=Six Days On The Road
TTITLE1=Phantom 309
TTITLE2=Hey Good Lookin'
TTITLE3=My Pick'Em Up Truck
TTITLE4=Eastbound And Down
TTITLE5=Girl On The Billboard
TTITLE6=Truck Driver's Prayer
TTITLE7=Freightliner Fever
TTITLE8=Truckin' Dad
TTITLE9=One A  M  Alone
EXTD=
EXTT0=
EXTT1=
EXTT2=
EXTT3=
EXTT4=
EXTT5=
EXTT6=
EXTT7=
EXTT8=
EXTT9=
PLAYORDER=
